<?xml version="1.0" encoding="utf-8"?><svg xml:space="preserve" viewBox="0 0 100 100" y="0" x="0" xmlns="http://www.w3.org/2000/svg" id="圖層_1" version="1.1" width="200px" height="200px" xmlns:xlink="http://www.w3.org/1999/xlink" style="width:100%;height:100%;background-size:initial;background-repeat-y:initial;background-repeat-x:initial;background-position-y:initial;background-position-x:initial;background-origin:initial;background-image:initial;background-color:rgb(241, 242, 243);background-clip:initial;background-attachment:initial;animation-play-state:paused" ><g class="ldl-scale" style="transform-origin:50% 50%;transform:rotate(0deg) scale(0.8, 0.8);animation-play-state:paused" ><g style="animation-play-state:paused" ><path fill="#f47e60" d="M92.5 33.3L76.3 17.1v11.1H57.9c-4.2 0-8 1.3-11.2 3.5 2.3 2.5 4.1 5.6 5 9.1 1.7-1.4 3.8-2.3 6.2-2.3h18.4v11.1l16.2-16.3z" style="fill:rgb(21, 33, 43);animation-play-state:paused" ></path>
<path fill="#f47e60" d="M28.6 61.6H7.5v10.2h21.1c4.5 0 8.6-1.3 11.8-3.5-2.3-2.5-4.1-5.6-5.2-8.9-1.7 1.4-4.2 2.2-6.6 2.2z" style="fill:rgb(21, 33, 43);animation-play-state:paused" ></path></g>
<path fill="#333" d="M92.5 66.7L76.3 50.5v11.1H57.9c-5.2 0-9.5-4.2-9.5-9.5V47c0-.6 0-1.3-.1-1.9 0-.3-.1-.5-.1-.8 0-.4-.1-.7-.2-1-.1-.3-.2-.6-.2-1-.1-.3-.1-.5-.2-.8-.1-.4-.2-.7-.4-1.1-.1-.2-.1-.4-.2-.5-.2-.4-.3-.8-.5-1.2-.1-.1-.1-.2-.2-.4-.2-.4-.4-.8-.7-1.2 0-.1-.1-.1-.1-.2l-.9-1.2s0-.1-.1-.1c-.7-.9-1.5-1.8-2.4-2.6l-.1-.1c-.5-.4-.9-.8-1.4-1.1-.1 0-.1-.1-.2-.1l-1.5-.9c-.1-.1-.2-.1-.3-.2-.5-.3-1-.5-1.5-.7-.1-.1-.3-.1-.4-.2-.5-.2-1-.4-1.4-.5-.2-.1-.3-.1-.5-.2-.5-.1-1-.3-1.4-.4-.2 0-.4-.1-.6-.1-.5-.1-1-.2-1.5-.2-.2 0-.4-.1-.6-.1-.7-.1-1.4-.1-2.2-.1h-21v10.2h21.1c4.8 0 9.6 2.9 9.6 8.6V52c0 .7 0 1.3.1 2 0 .3.1.6.1.9 0 .3.1.7.1 1l.3 1.2c.1.2.1.4.2.6.1.5.3.9.5 1.4 0 .1.1.2.1.3.2.5.4 1 .7 1.5 0 0 0 .1.1.1l.9 1.5c1.4 2.1 3.1 4 5.2 5.4.5.4 1 .7 1.6 1 0 0 .1 0 .1.1.5.3 1 .6 1.6.8.1 0 .1.1.2.1.5.2 1 .4 1.6.6.1 0 .2.1.3.1.5.2 1 .3 1.5.4.1 0 .3.1.4.1.5.1 1 .2 1.5.2.2 0 .3.1.5.1.5.1 1 .1 1.6.1h18.9v11.1l16.2-15.9z" style="fill:rgb(32, 70, 81);animation-play-state:paused" ></path>
<metadata xmlns:d="https://loading.io/stock/" style="animation-play-state:paused" ><d:name style="animation-play-state:paused" >random</d:name>


<d:tags style="animation-play-state:paused" >shuffle,switch,cross,arrow,turn,random,web application</d:tags>


<d:license style="animation-play-state:paused" >by</d:license>


<d:slug style="animation-play-state:paused" >6ay2i1</d:slug></metadata></g><!-- generated by https://loading.io/ --></svg>